{
  "accessors": [
    {
      "bufferView": 2,
      "componentType": 5126,
      "count": 2673,
      "max": [
        0.48232385516166687,
        0.7124549150466919,
        0.8393895030021667
      ],
      "min": [
        -0.48232385516166687,
        8.642673492431641e-07,
        -0.8393895030021667
      ],
      "type": "VEC3"
    },
    {
      "bufferView": 2,
      "byteOffset": 32076,
      "componentType": 5126,
      "count": 2673,
      "max": [
        1.0,
        1.0,
        1.0
      ],
      "min": [
        -1.0,
        -1.0,
        -1.0
      ],
      "type": "VEC3"
    },
    {
      "bufferView": 3,
      "componentType": 5126,
      "count": 2673,
      "max": [
        1.0,
        1.0,
        1.0,
        1.0
      ],
      "min": [
        -1.0,
        -1.0,
        -1.0,
        -1.0
      ],
      "type": "VEC4"
    },
    {
      "bufferView": 1,
      "componentType": 5126,
      "count": 2673,
      "max": [
        0.9974440932273865,
        0.9984878301620483
      ],
      "min": [
        0.0014952720375731587,
        0.0014934513019397855
      ],
      "type": "VEC2"
    },
    {
      "bufferView": 1,
      "byteOffset": 21384,
      "componentType": 5126,
      "count": 2673,
      "max": [
        0.9974440932273865,
        0.9984878301620483
      ],
      "min": [
        0.0014952720375731587,
        0.0014934513019397855
      ],
      "type": "VEC2"
    },
    {
      "bufferView": 1,
      "byteOffset": 42768,
      "componentType": 5126,
      "count": 2673,
      "max": [
        0.9974440932273865,
        0.9984878301620483
      ],
      "min": [
        0.0014952720375731587,
        0.0014934513019397855
      ],
      "type": "VEC2"
    },
    {
      "bufferView": 0,
      "componentType": 5125,
      "count": 10518,
      "type": "SCALAR"
    },
    {
      "bufferView": 2,
      "byteOffset": 64152,
      "componentType": 5126,
      "count": 88,
      "max": [
        0.430286705493927,
        0.7120139598846436,
        0.7875676155090332
      ],
      "min": [
        -0.430286705493927,
        0.7066686153411865,
        -0.7875676155090332
      ],
      "type": "VEC3"
    },
    {
      "bufferView": 2,
      "byteOffset": 65208,
      "componentType": 5126,
      "count": 88,
      "max": [
        0.9969454407691956,
        1.0,
        0.9969431757926941
      ],
      "min": [
        -0.9969431757926941,
        -1.0,
        -0.9969437718391418
      ],
      "type": "VEC3"
    },
    {
      "bufferView": 3,
      "byteOffset": 42768,
      "componentType": 5126,
      "count": 88,
      "max": [
        0.9999475479125977,
        0.9980888366699219,
        0.7074536085128784,
        1.0
      ],
      "min": [
        -0.9973055720329285,
        -0.9954661130905151,
        -0.9999479055404663,
        1.0
      ],
      "type": "VEC4"
    },
    {
      "bufferView": 1,
      "byteOffset": 64152,
      "componentType": 5126,
      "count": 88,
      "max": [
        0.9998480677604675,
        0.9206957221031189
      ],
      "min": [
        0.00015196498134173453,
        0.00015196498134173453
      ],
      "type": "VEC2"
    },
    {
      "bufferView": 1,
      "byteOffset": 64856,
      "componentType": 5126,
      "count": 88,
      "max": [
        0.9998480677604675,
        0.9206957221031189
      ],
      "min": [
        0.00015196498134173453,
        0.00015196498134173453
      ],
      "type": "VEC2"
    },
    {
      "bufferView": 0,
      "byteOffset": 42072,
      "componentType": 5125,
      "count": 324,
      "type": "SCALAR"
    },
    {
      "bufferView": 2,
      "byteOffset": 66264,
      "componentType": 5126,
      "count": 54120,
      "max": [
        0.8553608059883118,
        0.9473494291305542,
        1.524126410484314
      ],
      "min": [
        -0.8263149261474609,
        -8.310782504850067e-06,
        -1.1660833358764648
      ],
      "type": "VEC3"
    },
    {
      "bufferView": 2,
      "byteOffset": 715704,
      "componentType": 5126,
      "count": 54120,
      "max": [
        0.9999999403953552,
        1.0,
        0.9999998807907104
      ],
      "min": [
        -0.9999998807907104,
        -1.0,
        -0.9999998807907104
      ],
      "type": "VEC3"
    },
    {
      "bufferView": 3,
      "byteOffset": 44176,
      "componentType": 5126,
      "count": 54120,
      "max": [
        0.9999999403953552,
        1.0,
        1.0,
        1.0
      ],
      "min": [
        -1.0,
        -1.0,
        -1.0,
        -1.0
      ],
      "type": "VEC4"
    },
    {
      "bufferView": 1,
      "byteOffset": 65560,
      "componentType": 5126,
      "count": 54120,
      "max": [
        0.9984627366065979,
        0.9938995242118835
      ],
      "min": [
        0.001492951181717217,
        0.0014918460510671139
      ],
      "type": "VEC2"
    },
    {
      "bufferView": 1,
      "byteOffset": 498520,
      "componentType": 5126,
      "count": 54120,
      "max": [
        0.9984627366065979,
        0.9938995242118835
      ],
      "min": [
        0.001492951181717217,
        0.0014918460510671139
      ],
      "type": "VEC2"
    },
    {
      "bufferView": 1,
      "byteOffset": 931480,
      "componentType": 5126,
      "count": 54120,
      "max": [
        0.9984627366065979,
        0.9938995242118835
      ],
      "min": [
        0.001492951181717217,
        0.0014918460510671139
      ],
      "type": "VEC2"
    },
    {
      "bufferView": 0,
      "byteOffset": 43368,
      "componentType": 5125,
      "count": 258048,
      "type": "SCALAR"
    }
  ],
  "asset": {
    "extras": {
      "author": "den4ik4irik (https://sketchfab.com/den4ik4irik)",
      "license": "CC-BY-4.0 (http://creativecommons.org/licenses/by/4.0/)",
      "source": "https://sketchfab.com/3d-models/table-and-chair-set-970e7fee7c0a4d02b181072b59fac021",
      "title": "table and chair set"
    },
    "generator": "Sketchfab-14.5.0",
    "version": "2.0"
  },
  "bufferViews": [
    {
      "buffer": 0,
      "byteLength": 1075560,
      "name": "floatBufferViews",
      "target": 34963
    },
    {
      "buffer": 0,
      "byteLength": 1364440,
      "byteOffset": 1075560,
      "byteStride": 8,
      "name": "floatBufferViews",
      "target": 34962
    },
    {
      "buffer": 0,
      "byteLength": 1365144,
      "byteOffset": 2440000,
      "byteStride": 12,
      "name": "floatBufferViews",
      "target": 34962
    },
    {
      "buffer": 0,
      "byteLength": 910096,
      "byteOffset": 3805144,
      "byteStride": 16,
      "name": "floatBufferViews",
      "target": 34962
    }
  ],
  "buffers": [
    {
      "byteLength": 4715240,
      "uri": "scene.bin"
    }
  ],
  "images": [
    {
      "uri": "textures/Mat_Table_baseColor.png"
    },
    {
      "uri": "textures/Mat_Table_metallicRoughness.png"
    },
    {
      "uri": "textures/Mat_Table_normal.png"
    },
    {
      "uri": "textures/Mat_Transparent_baseColor.png"
    },
    {
      "uri": "textures/Mat_Transparent_metallicRoughness.png"
    },
    {
      "uri": "textures/Mat_Transparent_normal.png"
    },
    {
      "uri": "textures/Mat_Chair_baseColor.png"
    },
    {
      "uri": "textures/Mat_Chair_metallicRoughness.png"
    },
    {
      "uri": "textures/Mat_Chair_normal.png"
    }
  ],
  "materials": [
    {
      "doubleSided": true,
      "name": "Mat_Table",
      "normalTexture": {
        "index": 2
      },
      "occlusionTexture": {
        "index": 1
      },
      "pbrMetallicRoughness": {
        "baseColorTexture": {
          "index": 0
        },
        "metallicRoughnessTexture": {
          "index": 1
        }
      }
    },
    {
      "alphaMode": "BLEND",
      "doubleSided": true,
      "name": "Mat_Transparent",
      "normalTexture": {
        "index": 5
      },
      "occlusionTexture": {
        "index": 4
      },
      "pbrMetallicRoughness": {
        "baseColorTexture": {
          "index": 3
        },
        "metallicRoughnessTexture": {
          "index": 4
        }
      }
    },
    {
      "doubleSided": true,
      "name": "Mat_Chair",
      "normalTexture": {
        "index": 8
      },
      "occlusionTexture": {
        "index": 7
      },
      "pbrMetallicRoughness": {
        "baseColorTexture": {
          "index": 6
        },
        "metallicRoughnessTexture": {
          "index": 7
        }
      }
    }
  ],
  "meshes": [
    {
      "name": "Table_Mat_Table_0",
      "primitives": [
        {
          "attributes": {
            "NORMAL": 1,
            "POSITION": 0,
            "TANGENT": 2,
            "TEXCOORD_0": 3,
            "TEXCOORD_1": 4,
            "TEXCOORD_2": 5
          },
          "indices": 6,
          "material": 0,
          "mode": 4
        }
      ]
    },
    {
      "name": "Transparent_Mat_Transparent_0",
      "primitives": [
        {
          "attributes": {
            "NORMAL": 8,
            "POSITION": 7,
            "TANGENT": 9,
            "TEXCOORD_0": 10,
            "TEXCOORD_1": 11
          },
          "indices": 12,
          "material": 1,
          "mode": 4
        }
      ]
    },
    {
      "name": "Chair_Mat_Chair_0",
      "primitives": [
        {
          "attributes": {
            "NORMAL": 14,
            "POSITION": 13,
            "TANGENT": 15,
            "TEXCOORD_0": 16,
            "TEXCOORD_1": 17,
            "TEXCOORD_2": 18
          },
          "indices": 19,
          "material": 2,
          "mode": 4
        }
      ]
    }
  ],
  "nodes": [
    {
      "children": [
        1
      ],
      "matrix": [
        1.0,
        0.0,
        0.0,
        0.0,
        0.0,
        2.220446049250313e-16,
        -1.0,
        0.0,
        0.0,
        1.0,
        2.220446049250313e-16,
        0.0,
        0.0,
        0.0,
        0.0,
        1.0
      ],
      "name": "Sketchfab_model"
    },
    {
      "children": [
        2
      ],
      "matrix": [
        1.0,
        0.0,
        0.0,
        0.0,
        0.0,
        0.0,
        1.0,
        0.0,
        0.0,
        -1.0,
        0.0,
        0.0,
        0.0,
        0.0,
        0.0,
        1.0
      ],
      "name": "CD-16700.fbx"
    },
    {
      "children": [
        3,
        5,
        7
      ],
      "name": "RootNode"
    },
    {
      "children": [
        4
      ],
      "name": "Table"
    },
    {
      "mesh": 0,
      "name": "Table_Mat_Table_0"
    },
    {
      "children": [
        6
      ],
      "name": "Transparent"
    },
    {
      "mesh": 1,
      "name": "Transparent_Mat_Transparent_0"
    },
    {
      "children": [
        8
      ],
      "name": "Chair"
    },
    {
      "mesh": 2,
      "name": "Chair_Mat_Chair_0"
    }
  ],
  "samplers": [
    {
      "magFilter": 9729,
      "minFilter": 9987,
      "wrapS": 10497,
      "wrapT": 10497
    }
  ],
  "scene": 0,
  "scenes": [
    {
      "name": "Sketchfab_Scene",
      "nodes": [
        0
      ]
    }
  ],
  "textures": [
    {
      "sampler": 0,
      "source": 0
    },
    {
      "sampler": 0,
      "source": 1
    },
    {
      "sampler": 0,
      "source": 2
    },
    {
      "sampler": 0,
      "source": 3
    },
    {
      "sampler": 0,
      "source": 4
    },
    {
      "sampler": 0,
      "source": 5
    },
    {
      "sampler": 0,
      "source": 6
    },
    {
      "sampler": 0,
      "source": 7
    },
    {
      "sampler": 0,
      "source": 8
    }
  ]
}
